# xmcd
#
# Track frame offsets: 
#        150
#        12916
#        30050
#        40776
#        58102
#        77405
#        94353
#        111763
#        118844
#        136490
#        149002
#        197825
#
# Disc length: 2872 seconds
#
# Revision: 5
# Processed by: cddbd v1.5.2PL0 Copyright (c) Steve Scherf et al.
# Submitted via: ExactAudioCopy v1.3
#
DISCID=a10b360c
DTITLE="Weird Al" Yankovic - Straight Outta Lynwood
DYEAR=2006
DGENRE=Comedy
TTITLE0=White and Nerdy
TTITLE1=Pancreas
TTITLE2=Canadian Idiot
TTITLE3=I'll Sue Ya
TTITLE4=Polkarama!
TTITLE5=Virus Alert
TTITLE6=Confessions Part III
TTITLE7=Weasel Stomping Day
TTITLE8=Close but No Cigar
TTITLE9=Do I Creep You Out
TTITLE10=Trapped in the Drive-Thru
TTITLE11=Don't Download This Song
EXTD=
EXTT0=
EXTT1=
EXTT2=
EXTT3=
EXTT4=
EXTT5=
EXTT6=
EXTT7=
EXTT8=
EXTT9=
EXTT10=
EXTT11=
PLAYORDER=
